<svg width="18" height="18" viewBox="0 0 18 18" fill="none" xmlns="http://www.w3.org/2000/svg">
<path d="M17.3571 1.28571H13.5V0.642848C13.5 0.413113 13.3775 0.200893 13.1786 0.086097C12.9797 -0.028699 12.7346 -0.028699 12.5357 0.086097C12.3368 0.200893 12.2143 0.41312 12.2143 0.642848V1.28571H9.64286V0.642848C9.64286 0.413113 9.52031 0.200893 9.32143 0.086097C9.12254 -0.028699 8.87745 -0.028699 8.67857 0.086097C8.47969 0.200893 8.35714 0.41312 8.35714 0.642848V1.28571H5.78571V0.642848C5.78571 0.413113 5.66317 0.200893 5.46429 0.086097C5.2654 -0.028699 5.02031 -0.028699 4.82143 0.086097C4.62255 0.200893 4.5 0.41312 4.5 0.642848V1.28571H0.642857C0.472386 1.28571 0.308799 1.35344 0.188265 1.47397C0.0677314 1.5945 0 1.75809 0 1.92856V17.3571C0 17.5276 0.0677314 17.6912 0.188265 17.8117C0.308799 17.9323 0.472386 18 0.642857 18H17.3571C17.5276 18 17.6912 17.9323 17.8117 17.8117C17.9323 17.6912 18 17.5276 18 17.3571V1.92856C18 1.75809 17.9323 1.5945 17.8117 1.47397C17.6912 1.35344 17.5276 1.28571 17.3571 1.28571ZM4.5 2.57142V3.21428C4.5 3.44401 4.62254 3.65623 4.82143 3.77103C5.02031 3.88583 5.2654 3.88583 5.46429 3.77103C5.66317 3.65623 5.78571 3.44401 5.78571 3.21428V2.57142H8.35714V3.21428C8.35714 3.44401 8.47969 3.65623 8.67857 3.77103C8.87746 3.88583 9.12255 3.88583 9.32143 3.77103C9.52031 3.65623 9.64286 3.44401 9.64286 3.21428V2.57142H12.2143V3.21428C12.2143 3.44401 12.3368 3.65623 12.5357 3.77103C12.7346 3.88583 12.9797 3.88583 13.1786 3.77103C13.3775 3.65623 13.5 3.44401 13.5 3.21428V2.57142H16.7143V5.14285H1.28571V2.57142H4.5ZM1.28571 16.7143V6.42857H16.7143V16.7143H1.28571ZM10.9286 9C10.9286 9.17047 10.8608 9.33405 10.7403 9.45459C10.6198 9.57512 10.4562 9.64285 10.2857 9.64285H7.71429C7.48455 9.64285 7.27233 9.52031 7.15753 9.32142C7.04274 9.12254 7.04274 8.87745 7.15753 8.67857C7.27233 8.47968 7.48456 8.35714 7.71429 8.35714H10.2857C10.4562 8.35714 10.6198 8.42487 10.7403 8.5454C10.8608 8.66594 10.9286 8.82952 10.9286 9ZM15.4286 9C15.4286 9.17047 15.3608 9.33405 15.2403 9.45459C15.1198 9.57512 14.9562 9.64285 14.7857 9.64285H12.2143C11.9846 9.64285 11.7723 9.52031 11.6575 9.32142C11.5427 9.12254 11.5427 8.87745 11.6575 8.67857C11.7723 8.47968 11.9846 8.35714 12.2143 8.35714H14.7857C14.9562 8.35714 15.1198 8.42487 15.2403 8.5454C15.3608 8.66594 15.4286 8.82952 15.4286 9ZM6.42857 9C6.42857 9.17047 6.36084 9.33405 6.24031 9.45459C6.11977 9.57512 5.95619 9.64285 5.78571 9.64285H3.21429C2.98455 9.64285 2.77233 9.52031 2.65753 9.32142C2.54274 9.12254 2.54274 8.87745 2.65753 8.67857C2.77233 8.47968 2.98456 8.35714 3.21429 8.35714H5.78571C5.95619 8.35714 6.11977 8.42487 6.24031 8.5454C6.36084 8.66594 6.42857 8.82952 6.42857 9ZM10.9286 11.5714C10.9286 11.7419 10.8608 11.9055 10.7403 12.026C10.6198 12.1466 10.4562 12.2143 10.2857 12.2143H7.71429C7.48455 12.2143 7.27233 12.0917 7.15753 11.8929C7.04274 11.694 7.04274 11.4489 7.15753 11.25C7.27233 11.0511 7.48456 10.9286 7.71429 10.9286H10.2857C10.4562 10.9286 10.6198 10.9963 10.7403 11.1168C10.8608 11.2374 10.9286 11.401 10.9286 11.5714ZM15.4286 11.5714C15.4286 11.7419 15.3608 11.9055 15.2403 12.026C15.1198 12.1466 14.9562 12.2143 14.7857 12.2143H12.2143C11.9846 12.2143 11.7723 12.0917 11.6575 11.8929C11.5427 11.694 11.5427 11.4489 11.6575 11.25C11.7723 11.0511 11.9846 10.9286 12.2143 10.9286H14.7857C14.9562 10.9286 15.1198 10.9963 15.2403 11.1168C15.3608 11.2374 15.4286 11.401 15.4286 11.5714ZM6.42857 11.5714C6.42857 11.7419 6.36084 11.9055 6.24031 12.026C6.11977 12.1466 5.95619 12.2143 5.78571 12.2143H3.21429C2.98455 12.2143 2.77233 12.0917 2.65753 11.8929C2.54274 11.694 2.54274 11.4489 2.65753 11.25C2.77233 11.0511 2.98456 10.9286 3.21429 10.9286H5.78571C5.95619 10.9286 6.11977 10.9963 6.24031 11.1168C6.36084 11.2374 6.42857 11.401 6.42857 11.5714ZM10.9286 14.1429C10.9286 14.3133 10.8608 14.4769 10.7403 14.5974C10.6198 14.718 10.4562 14.7857 10.2857 14.7857H7.71429C7.48455 14.7857 7.27233 14.6632 7.15753 14.4643C7.04274 14.2654 7.04274 14.0203 7.15753 13.8214C7.27233 13.6225 7.48456 13.5 7.71429 13.5H10.2857C10.4562 13.5 10.6198 13.5677 10.7403 13.6883C10.8608 13.8088 10.9286 13.9724 10.9286 14.1429ZM15.4286 14.1429C15.4286 14.3133 15.3608 14.4769 15.2403 14.5974C15.1198 14.718 14.9562 14.7857 14.7857 14.7857H12.2143C11.9846 14.7857 11.7723 14.6632 11.6575 14.4643C11.5427 14.2654 11.5427 14.0203 11.6575 13.8214C11.7723 13.6225 11.9846 13.5 12.2143 13.5H14.7857C14.9562 13.5 15.1198 13.5677 15.2403 13.6883C15.3608 13.8088 15.4286 13.9724 15.4286 14.1429ZM6.42857 14.1429C6.42857 14.3133 6.36084 14.4769 6.24031 14.5974C6.11977 14.718 5.95619 14.7857 5.78571 14.7857H3.21429C2.98455 14.7857 2.77233 14.6632 2.65753 14.4643C2.54274 14.2654 2.54274 14.0203 2.65753 13.8214C2.77233 13.6225 2.98456 13.5 3.21429 13.5H5.78571C5.95619 13.5 6.11977 13.5677 6.24031 13.6883C6.36084 13.8088 6.42857 13.9724 6.42857 14.1429Z" fill="#435AE0"/>
</svg>
