<svg width="19" height="18" viewBox="0 0 19 18" fill="none" xmlns="http://www.w3.org/2000/svg">
<path d="M13.2226 17.2658H5.08582C2.2379 17.2658 0 15.0281 0 12.1799V10.1456H2.03433V12.1799C2.03433 13.9091 3.35654 15.2313 5.08573 15.2313H13.2229C14.9521 15.2313 16.2744 13.9091 16.2744 12.1799V10.1456H18.3087V12.1799C18.3085 15.028 16.0709 17.2658 13.2229 17.2658H13.2226Z" fill="#435AE0"/>
<path fill-rule="evenodd" clip-rule="evenodd" d="M13.8329 4.04315L10.0695 0.381469C9.56089 -0.127156 8.7473 -0.127156 8.23868 0.381469L4.47534 4.04315C3.96671 4.44995 3.96671 5.26371 4.37351 5.67051C4.88214 6.17913 5.69573 6.17913 6.20436 5.67051L8.13703 3.83967V11.163C8.13703 11.7733 8.54382 12.1801 9.1541 12.1801C9.76438 12.1801 10.1712 11.7733 10.1712 11.163V3.94124L12.002 5.67042C12.5106 6.17905 13.3242 6.17905 13.8329 5.67042C14.3415 5.26363 14.3415 4.44986 13.8329 4.04307L13.8329 4.04315Z" fill="#435AE0"/>
</svg>
